<svg width="180" height="194" viewBox="0 0 180 194" fill="none" xmlns="http://www.w3.org/2000/svg">
<path d="M105.111 20.4112C96.5581 17.1068 86.7363 18.4571 78.4166 22.3089C70.0968 26.1608 63.0668 32.2965 56.5225 38.7175C49.4339 45.6583 42.7196 53.0948 37.705 61.6509C27.2378 79.5237 24.9023 101.227 27.1977 121.805C28.142 130.272 29.8616 138.794 33.8402 146.32C44.8098 167.108 72.0033 176.037 94.7162 169.966C117.429 163.894 135.327 145.414 145.491 124.211C155.132 104.076 158.558 80.2057 150.917 59.2299C143.275 38.254 123.186 21.3153 100.867 21.058" fill="#F3DA41"/>
<path d="M68.4684 133.447C64.8653 131.722 61.471 129.274 58.53 126.21C53.6614 121.136 49.9174 114.397 47.3907 106.195C44.769 97.6631 44.7962 90.779 47.4866 85.1385C48.3945 83.2425 50.6569 82.4381 52.5569 83.3374C54.4529 84.2453 55.2532 86.5163 54.3494 88.4037C52.509 92.247 52.617 97.3293 54.6531 103.957C56.8285 111.02 59.9765 116.736 64.0135 120.947C68.5833 125.719 74.4774 128.562 80.1773 128.75C83.3231 128.854 86.6857 128.197 90.1758 126.788C100.342 122.692 108.246 113.653 115.223 105.689L127.814 91.311C129.195 89.726 131.6 89.5701 133.185 90.9513C134.77 92.3324 134.926 94.7378 133.545 96.3227L120.954 110.701C113.414 119.313 104.871 129.069 93.0276 133.849C88.5445 135.657 84.1428 136.502 79.9285 136.361C76.0549 136.236 72.1406 135.226 68.4602 133.464L68.4684 133.447Z" fill="black"/>
<path d="M70.6624 87.9895C70.3964 87.8621 70.1387 87.7176 69.8847 87.5432C66.9708 85.5679 67.0083 82.0318 67.0182 80.8659C67.0936 73.815 68.6912 66.7126 71.6494 60.3145C72.6014 58.2604 73.8721 55.9371 76.1338 54.3414C77.8838 51.4355 81.9025 50.3331 85.1166 51.946C87.4597 53.1313 89.1393 55.5702 89.6057 58.4723C89.9439 60.5852 89.6456 62.5516 89.3108 64.374C88.1187 70.8057 85.7452 80.0571 78.9349 86.1082C76.2487 88.5025 73.163 89.1763 70.6665 87.9809L70.6624 87.9895ZM82.1425 60.161C81.5967 60.0895 80.9949 60.2231 80.5451 60.5456C79.7379 61.1082 79.0956 62.3615 78.5578 63.5066C76.2273 68.5496 74.8927 74.1116 74.6644 79.6761C79.1387 75.1113 80.8941 68.0317 81.8207 62.9915C82.0118 61.9756 82.1738 60.9986 82.1384 60.1696L82.1425 60.161Z" fill="black"/>
<path d="M102.497 96.8951C101.88 96.5993 101.355 96.2849 100.947 96.0366C100.349 95.6767 99.3606 95.0767 98.606 93.9877C97.2105 91.9906 97.5075 89.6967 97.627 88.7204C98.4943 81.9538 100.279 75.3417 102.929 69.0595C104.037 66.4369 105.429 63.7711 108.067 62.0073C109.926 60.7673 111.948 60.3117 113.509 60.0468C114.735 59.8429 116.2 59.6903 117.748 60.1786C120.152 60.9289 121.855 63.0101 121.985 65.3606C122.013 65.7643 121.964 66.1522 121.869 66.5283C122.157 68.7016 121.794 70.8691 121.402 72.5903C119.72 79.9579 116.814 86.9294 112.766 93.3121C112.062 94.4303 110.404 97.0325 107.326 97.6466C105.435 98.0277 103.767 97.5031 102.497 96.8951ZM105.174 89.6977C105.355 89.8053 105.587 89.9375 105.784 90.0319C105.913 89.8723 106.096 89.6224 106.336 89.2312C109.915 83.584 112.49 77.4137 113.979 70.8918C114.339 69.303 114.402 68.2894 114.327 67.6312C113.64 67.7663 112.823 67.976 112.28 68.3383C111.304 68.9889 110.573 70.4947 109.927 72.0203C107.543 77.6598 105.942 83.6008 105.161 89.6809C105.161 89.6809 105.161 89.6809 105.157 89.6895L105.174 89.6977Z" fill="black"/>
<path d="M73.2737 86.4346C72.9477 86.2785 72.6422 86.0795 72.3655 85.8204C72.2055 85.67 72.0455 85.5196 71.9023 85.3561C70.4311 84.9047 69.3409 83.5917 69.2286 81.9982C69.15 80.8848 69.5534 79.8441 70.2765 79.083C69.7759 78.1683 69.5068 76.8583 70.1661 75.107C70.1571 74.3328 70.2642 73.6248 70.4111 73.0096C69.9926 67.4307 72.2432 62.4444 74.7949 57.4019C75.2639 56.4664 76.3753 54.2777 78.8294 53.4913C80.2511 53.0331 81.7896 53.1898 83.1671 53.881C84.6993 54.6675 85.8806 56.0768 86.411 57.744C87.0991 59.919 86.6452 61.9902 86.3494 63.3566L84.7304 70.7019C84.4227 72.1154 84.0869 73.6314 83.6023 75.15C83.5306 75.432 83.4588 75.714 83.3743 76.0005C83.3858 76.1748 83.3801 76.3408 83.3704 76.5154C83.1662 79.012 81.9428 81.3685 80.0259 82.9711C79.5982 83.3358 79.1224 83.6247 78.6324 83.833C78.4343 84.6873 77.9414 85.4743 77.1894 86.0317C76.0298 86.8896 74.5299 87.0045 73.2774 86.4047L73.2737 86.4346Z" fill="black"/>
<path d="M76.5125 72.029C75.9206 71.7455 75.394 71.3035 75.001 70.7146C73.377 68.2918 72.9604 65.0655 73.8584 61.8466C73.8906 61.7354 73.9227 61.6243 73.9589 61.5045C73.3658 60.651 73.1175 59.5619 73.3668 58.4685C73.7429 56.8241 74.8371 55.3759 76.3624 54.5033C77.8876 53.6306 79.6878 53.417 81.3045 53.9169C82.4337 54.2678 83.3331 55.1204 83.7434 56.2238C84.1536 57.3272 84.0258 58.5631 83.409 59.5649C82.4688 61.0658 81.591 62.4805 81.2065 63.8782C80.922 64.9127 80.9734 65.9286 81.3444 66.4753C82.5143 68.2167 82.0442 70.5859 80.3028 71.7558C79.1418 72.5287 77.7132 72.5828 76.5379 72.02L76.5125 72.029Z" fill="black"/>
<path d="M102.825 95.6387C102.181 95.3306 101.604 94.8852 101.138 94.2933C100.49 93.4662 100.226 92.4327 100.358 91.4306C99.981 90.5436 99.7909 89.3769 100.02 87.8627L101.039 81.2424C101.319 79.4252 101.602 77.557 102.181 75.6411C103.406 71.587 105.832 67.9081 109.061 65.1727C109.848 63.7042 110.991 62.3531 112.763 61.472C113.759 60.9785 114.915 60.9417 115.939 61.3795C116.955 61.8131 117.748 62.6675 118.085 63.7253C118.814 66.0146 118.687 68.3056 118.271 70.3633C118.413 70.7268 118.505 71.1294 118.521 71.5376C118.846 77.3989 116.625 83.3589 112.553 87.5893C111.913 89.2126 111.196 90.799 110.401 92.3484C110.039 93.0608 109.355 94.3786 107.941 95.3047C106.359 96.34 104.391 96.4203 102.821 95.6686L102.825 95.6387Z" fill="black"/>
</svg>
